<svg version="1.1" id="Calque_1" xmlns="http://www.w3.org/2000/svg" xmlns:xlink="http://www.w3.org/1999/xlink" x="0px" y="0px" viewBox="0 0 708.5 258" style="enable-background:new 0 0 708.5 258" xml:space="preserve"><style>.st0{fill:#2FA09D}.st2{fill:url(#SVGID_00000142139246794556883510000017290295782666623625_)}.st3{fill:url(#SVGID_00000166668615418738910210000005528790306918867091_)}.st4{fill:url(#SVGID_00000165199999873409106640000009730491492909630625_)}.st5{fill:#FFFFFF}.st6{fill:url(#SVGID_00000068676863135554970910000017388147949053833885_)}.st7{clip-path:url(#SVGID_00000053540962612692328380000018390177526752023957_);fill:url(#SVGID_00000165197784082197637010000004876827962864337332_)}.st8{clip-path:url(#SVGID_00000064351125969731027030000003503169353551318449_);fill:#1E968E}.st9{clip-path:url(#SVGID_00000089552629382020097100000003494210224982754206_)}.st10{fill:url(#SVGID_00000003783508803005930070000002195003263982388656_)}.st11{fill:url(#SVGID_00000028308752561300518910000006994237499703596973_)}.st12{clip-path:url(#SVGID_00000060730365080407866150000015563984889030162364_);fill:#FFFFFF}.st13{clip-path:url(#SVGID_00000005243894256063688270000002395536719889136519_);fill:#FFFFFF}.st14{clip-path:url(#SVGID_00000024722494668673876160000005564005299588486039_);fill:#FFFFFF}.st15{clip-path:url(#SVGID_00000040557093963543797830000006963964657191111593_);fill:#FFFFFF}.st16{clip-path:url(#SVGID_00000177450385448033070030000005390043605107705483_)}.st17{fill:url(#SVGID_00000152238694720533936860000009232203693362464942_)}.st18{fill:url(#SVGID_00000052799548808550109630000006791919248325881219_)}.st19{opacity:0.5;clip-path:url(#SVGID_00000117653640682922666770000007970658899669022374_);fill:url(#SVGID_00000033369636183748220510000017075645704648041146_);enable-background:new}</style><path class="st0" d="M286.6,72.4c4.9,0,8.8,1.3,8.8,1.3c1.6,0.5,3.2-0.4,3.7-2l1.3-4.9c0.4-1.6-0.5-3.4-2.1-3.9 c0,0-5-1.7-12.2-1.7c-18.6,0-33.5,11.4-33.5,31.8c0,17,10.9,29.9,32.2,29.9c7.5,0,12.9-1.7,12.9-1.7c1.6-0.5,2.6-2.2,2.3-3.9 l-0.9-4.6c-0.3-1.6-1.9-2.6-3.5-2.2c0,0-4.4,1.2-8.6,1.2c-12.4,0-19.7-7.5-19.7-19.5C267,78.8,275.6,72.4,286.6,72.4z"/><path class="st0" d="M326.3,62.5c-1.7,0-3.4,1.3-3.9,2.9l-16.5,54c-0.5,1.6,0.5,2.9,2.2,2.9h7.9c1.7,0,3.4-1.3,3.9-2.9l2.6-9.5 c0.4-1.6,2.2-2.9,3.9-2.9h11c1.7,0,3.4,1.3,3.9,2.9l2.9,9.5c0.5,1.6,2.2,2.9,3.9,2.9h8.5c1.7,0,2.6-1.3,2.1-2.9l-16.7-54 c-0.5-1.6-2.3-2.9-3.9-2.9L326.3,62.5L326.3,62.5z M328.2,96.8c-1.7,0-2.7-1.3-2.2-2.9l1.9-6.8c0.5-1.6,1.1-4.3,1.5-5.9l1.4-5.6 c0.4-1.6,0.7-3,0.7-3c0,0,0.4,1.3,0.8,3l1.5,5.6c0.4,1.6,1.2,4.3,1.6,5.9l2,6.9c0.5,1.6-0.5,2.9-2.2,2.9 C335.4,96.8,328.2,96.8,328.2,96.8z"/><path class="st0" d="M387.8,86.1c-7.9-2.9-11.4-4.6-11.4-8.4c0-3.1,2.9-5.8,8.9-5.8s10,1.7,10,1.7c1.5,0.6,3.2-0.2,3.6-1.8 l1.4-5.1c0.5-1.6-0.5-3.4-2-3.9c0,0-5.9-2-12.8-2c-14.5,0-23.2,7.8-23.2,18c0,8.7,6.7,14.2,16.9,17.7c7.4,2.6,10.3,4.7,10.3,8.4 c0,3.9-3.4,6.5-9.8,6.5c-5.9,0-12.6-2.6-12.6-2.6c-1.6-0.6-3.2,0.2-3.6,1.8l-1.3,5.3c-0.4,1.6,0.5,3.4,2.1,4c0,0,7.5,2.6,14.5,2.6 c16.9,0,24.8-8.5,24.8-18.6C403.7,95.5,398.6,90,387.8,86.1z"/><path class="st0" d="M445.8,62.8c-1.7,0-3,1.4-3,3v16.9c0,1.7-1.4,3-3,3h-14.1c-1.7,0-3-1.4-3-3V65.8c0-1.7-1.4-3-3-3h-6.2 c-1.7,0-3,1.4-3,3v53.7c0,1.7,1.4,3,3,3h6.2c1.7,0,3-1.4,3-3v-18.9c0-1.7,1.4-3,3-3h14.1c1.7,0,3,1.4,3,3v18.9c0,1.7,1.4,3,3,3 h6.1c1.7,0,3-1.4,3-3V65.8c0-1.7-1.4-3-3-3H445.8z"/><linearGradient id="SVGID_1_" gradientUnits="userSpaceOnUse" x1="496.323" y1="211.9142" x2="496.323" y2="134.0087" gradientTransform="matrix(1 0 0 -1 0 260)"><stop offset="0" style="stop-color:#F3D837"/><stop offset="1" style="stop-color:#F0B038"/></linearGradient><path d="M475.9,63.3c4-0.7,9.5-1.2,17.4-1.2c7.9,0,13.6,1.6,17.4,4.8c3.6,3,6.1,8,6.1,13.8s-1.9,10.8-5.2,14.2 c-4.4,4.3-10.9,6.3-18.5,6.3c-1.7,0-3.2-0.1-4.4-0.3v18.3c0,1.7-1.4,3.1-3.1,3.1H479c-1.7,0-3.1-1.4-3.1-3.1L475.9,63.3L475.9,63.3 z M488.6,90.5c1.1,0.3,2.5,0.4,4.3,0.4c6.8,0,11.1-3.6,11.1-9.8c0-5.5-3.6-8.8-10.1-8.8c-2.6,0-2.6,0-2.6,0 c-1.5,0.3-2.7,1.9-2.7,3.7L488.6,90.5L488.6,90.5z" style="fill:url(#SVGID_1_)"/><linearGradient id="SVGID_00000151507348706190028600000013083585791031520945_" gradientUnits="userSpaceOnUse" x1="538.69" y1="211.9142" x2="538.69" y2="134.0087" gradientTransform="matrix(1 0 0 -1 0 260)"><stop offset="0" style="stop-color:#F3D837"/><stop offset="1" style="stop-color:#F0B038"/></linearGradient><path style="fill:url(#SVGID_00000151507348706190028600000013083585791031520945_)" d="M519.5,65.8c0-1.8,1.5-3.2,3.2-3.2h7.5 c1.8,0,3.2,1.5,3.2,3.2v42c0,1.8,1.5,3.2,3.2,3.2h17.9c1.8,0,3.2,1.5,3.2,3.2v4.9c0,1.8-1.5,3.2-3.2,3.2h-31.9 c-1.8,0-3.2-1.5-3.2-3.2L519.5,65.8L519.5,65.8z"/><linearGradient id="SVGID_00000107571484638364033150000012582190450460856767_" gradientUnits="userSpaceOnUse" x1="580.9561" y1="212.672" x2="580.9561" y2="134.7665" gradientTransform="matrix(1 0 0 -1 0 260)"><stop offset="0" style="stop-color:#F3D837"/><stop offset="1" style="stop-color:#F0B038"/></linearGradient><path style="fill:url(#SVGID_00000107571484638364033150000012582190450460856767_)" d="M570.6,61.8v34.4	c0,10.3,3.7,15.5,10.3,15.5c6.8,0,10.5-5,10.5-15.5V61.8h12.9v33.6c0,18.5-8.9,27.2-23.8,27.2c-14.4,0-22.9-8.3-22.9-27.4V61.8	H570.6z"/><linearGradient id="SVGID_00000161619038660145505280000012451389399843860642_" gradientUnits="userSpaceOnUse" x1="627.8154" y1="212.8057" x2="627.8154" y2="134.9001" gradientTransform="matrix(1 0 0 -1 0 260)"><stop offset="0" style="stop-color:#F3D837"/><stop offset="1" style="stop-color:#F0B038"/></linearGradient><path style="fill:url(#SVGID_00000161619038660145505280000012451389399843860642_)" d="M609.2,107.5c3.7,1.9,9.5,3.7,15.4,3.7 c6.4,0,9.8-2.6,9.8-6.5c0-3.7-2.9-5.9-10.3-8.4c-10.2-3.5-16.9-9-16.9-17.7c0-10.2,8.8-18,23.2-18c6.9,0,12,1.4,15.7,3l-2.2,7.8 c-0.5,1.7-2.2,2.6-3.9,1.9c0,0-3.8-1.6-9.9-1.6c-6,0-8.9,2.7-8.9,5.8c0,3.8,3.5,5.5,11.4,8.4c10.8,3.9,16,9.4,16,17.8 c0,10-7.9,18.6-24.8,18.6c-7,0-14.4-2.6-14.4-2.6c-1.7-0.6-2.7-2.5-2.3-4.2L609.2,107.5z"/><g><polygon class="st0" points="329,169.5 332.5,173.5 336,169.5 332.5,165.5"/><path class="st0" d="M337,150.5c-0.5-1.3-1.2-2.5-2.1-3.6l-2.9,4.9c0.1,0.1,0.3,0.3,0.5,0.6c0.2,0.3,0.4,0.7,0.6,1.2 c0.2,0.5,0.4,0.9,0.6,1.5c0.2,0.5,0.3,1.1,0.4,1.6h-7.3v0h-3.4c-0.1-1.2-0.5-2.4-1.1-3.6c-0.6-1.2-1.5-2.4-2.7-3.7 c-0.8-0.8-1.5-1.5-2.3-2.1c-0.8-0.7-1.5-1.4-2.3-2.1l9.1-3.5l1.5-5.2c-1.7,0.6-4,1.4-5.9,2.1c-1.1,0.4-2.2,0.8-3.2,1.2 c-1,0.4-1.9,0.8-2.7,1.1c-1.9,1-2.6,3.5-3,5.5c-0.1,0.8-0.2,1.5-0.2,2.2c0,0.7,0.7,1.3,1.2,1.8c0.3,0.3,0.7,0.7,1,1 c0.3,0.3,0.6,0.6,0.8,0.8c0.1-0.2,0.3-0.3,0.4-0.4c0.1-0.1,0.3-0.2,0.4-0.4c1.1,0.9,2,1.7,2.7,2.6c0.7,0.8,1.3,1.8,1.8,2.8h-10.5v0 h-10.1H298h-10.2h-0.4h-10.1v0h-1.7c-0.6,0-1.2-0.3-1.9-0.8c-0.7-0.5-1.3-1.1-1.9-1.9c-0.6-0.8-1.2-1.8-1.7-2.9 c-0.5-1.1-0.8-2.4-1-3.7c-0.8,0-1.7,0.1-2.6,0.3c-0.9,0.2-1.8,0.4-2.7,0.8s-1.8,0.8-2.7,1.3c-0.9,0.5-1.7,1.1-2.4,1.7 c-0.7,0.6-1.4,1.3-2,2.1c-0.6,0.8-1,1.6-1.3,2.4c-0.1,0.3-0.2,0.7-0.3,1.2s-0.2,1-0.3,1.4c-0.1,0.5-0.1,0.9-0.2,1.3 s-0.1,0.7-0.1,0.9c0,0.7,0.1,1.5,0.4,2.5s0.6,2,0.9,3.1s0.8,2.2,1.2,3.4c0.4,1.2,0.9,2.4,1.2,3.6s0.7,2.4,1,3.5s0.5,2.2,0.6,3.2 c0.3-0.5,0.5-1.1,0.6-1.8s0.3-1.3,0.4-2c0.2-1.5,0.3-3,0.2-4.6c-0.1-1.5-0.4-3.1-0.7-4.6c-0.3-1.5-0.7-3.1-1.2-4.6 c-0.4-1.5-0.8-3-1.2-4.4c0.5-0.4,1-0.7,1.5-1.1c0.5-0.3,1-0.6,1.5-0.9c0,1.3,0.2,2.4,0.7,3.3s1.2,1.6,2.1,2.1 c0.9,0.5,1.9,0.9,3.2,1.2c1.2,0.3,2.5,0.4,3.9,0.5l1.2-1.8c0.5,0.3,1.1,0.6,1.7,0.8c0.6,0.2,1.3,0.4,2.1,0.5h1h0.5h10.1h0.4H298 h0.4h10.1h0.5h17.7h0.6h9.4c0.4-1.3,0.7-2.7,0.9-4c0.2-1.4,0.3-2.7,0.2-4.1C337.7,153,337.4,151.7,337,150.5z M266.9,156.4 c-0.4-0.1-0.8-0.2-1.1-0.3c-0.3-0.1-0.7-0.3-0.9-0.6c-0.3-0.3-0.6-0.6-0.8-1.1c0.5-0.2,0.9-0.3,1.4-0.5c0.4-0.1,0.9-0.3,1.4-0.5 c0.5,1.2,0.9,2.2,1.5,3.3C267.7,156.6,267.3,156.5,266.9,156.4z"/><polygon class="st0" points="351.5,169.8 355,173.8 358.6,169.8 355,165.8"/><path class="st0" d="M397.8,155.6c0.1-1.1,0.1-2.1,0-3.1c0-1-0.1-1.9-0.1-2.8c0-0.9-0.1-1.7-0.1-2.5c0-0.8,0-1.5,0.2-2.2 c0.1,0,0.2-0.1,0.3-0.2c0.1-0.2,0.3-0.4,0.4-0.6c0.2-0.3,0.3-0.5,0.5-0.9c0.2-0.3,0.3-0.6,0.5-0.9c0.1-0.3,0.3-0.5,0.3-0.7 c0.2-0.5,0.2-0.4-0.1-0.9c-0.2-0.3-0.4-0.6-0.7-0.9c-0.3-0.4-0.6-0.7-0.9-1.2c-0.3-0.4-0.6-0.8-0.9-1.1c-0.3-0.3-0.6-0.7-1-1.2 c-0.1,0-0.2,0.1-0.4,0.4c-0.2,0.2-0.4,0.6-0.6,1c-0.2,0.4-0.5,0.9-0.8,1.4c-0.3,0.5-0.6,1-0.9,1.6c0,0.4,0.1,0.9,0.2,1.7 c0.2,1.7,0.3,3.5,0.4,5.4c0.2,2.1,0.3,4.3,0.4,6.3c0.1,1,0.1,2,0.1,2.9h-6.2v0h-3.9l1.9-4.5c-1.1,0.1-2.1,0-3.1-0.1 c-1.9-0.3-3.7-0.9-5.3-1.7c-0.8-0.4-1.6-0.8-2.3-1.2c-0.7-0.4-1.4-0.7-2-1.1c-0.6-0.3-1.2-0.6-1.8-0.8c-0.5-0.2-0.9-0.2-1.4,0 c-0.5,0.1-0.9,0.4-1.4,0.7c-1,0.7-1.8,1.7-2.5,2.7c-0.4,0.5-0.7,1.1-1,1.6c-0.3,0.5-0.5,1-0.7,1.4c0.7-0.5,1.5-0.8,2.3-0.9 c0.8-0.1,1.6-0.1,2.4,0.1c1.6,0.3,3,1.2,4.2,2.2c-0.8,0.3-1.6,0.5-2.2,0.7c-0.6,0.2-1.2,0.3-1.7,0.5c-0.5,0.1-1,0.2-1.5,0.3 c-0.5,0.1-1,0.1-1.5,0.1h-4h-0.7H360l-1.6-0.2c0.2-0.9,0.3-1.6,0.4-2.2c0.1-0.9,0.2-1.7,0.1-2.3c0-0.1-0.1-0.2-0.1-0.1 c-0.3,0.5-0.8,1-1.3,1.5c-0.5,0.6-1.1,1.1-1.7,1.5c-0.6,0.5-1.3,0.9-2,1.2c-0.7,0.3-1.4,0.5-2,0.6h-2.6h-0.7h-3l-0.3-20.4 c-0.4,0.4-0.9,0.8-1.4,1.2c-0.5,0.4-1,0.9-1.5,1.3c-0.6,0.6-1.6,1.3-1.6,2.1c0,0.4,0.1,1.1,0.1,1.9c0,0.9,0,1.8,0,2.9 c0,1.1,0,2.2,0,3.5c0,1.2,0,2.5,0.1,3.7c0.1,2.9,0.2,6.1,0.9,8.7c0.2,0.5,0.4,0.8,0.7,0.8h5.8h0.7h3.3c0.7,0,1.3-0.1,1.8-0.3 c0.6-0.2,1.1-0.4,1.6-0.7c0.4,0.3,0.8,0.5,1.3,0.7c0.5,0.2,1.1,0.3,1.7,0.3h3.4h0.7h6.1c2-0.4,3.9-1.5,5.8-2.3 c2.2-0.9,4.5-1.8,7-1.7v4.1h6.5h0.7h7.4c0.4-1.2,0.8-2.4,1-3.5C397.6,157.8,397.7,156.7,397.8,155.6z"/><path class="st0" d="M414.1,151.5c-0.3-0.9-0.8-1.5-1.3-2c-0.2-0.2-0.5-0.5-0.7-0.7c-0.2-0.2-0.5-0.5-0.7-0.7 c-0.2-0.2-0.4-0.4-0.6-0.5c-0.8-0.5-1.5,0-2.3,0.5c-0.6,0.5-1.1,1.1-1.6,1.8c-1.5,2.3-2.4,5.4-2.4,8.1c0,0.9,0.2,1.6,0.5,2.2 c0.3,0.6,0.8,1.1,1.4,1.5c1.7,1,4.2,1,5.7-0.3c-1.1,1.7-2.2,3.1-3.2,4.2c-1,1.1-2,1.9-2.9,2.6c-2.7,2-5.7,1.9-8.7,2 c0.8,0.8,2.3,1.5,3.5,2.1c0.7,0.3,1.4,0.6,2,0.9c0.7,0.3,1.3,0.4,1.9,0.6c0.6,0.1,1.1,0.1,1.5-0.1c1.2-0.5,2.3-1.1,3.3-2 c1-0.8,1.8-1.8,2.5-2.9c1.4-2.1,2.3-4.7,2.7-7.2c0.2-1.3,0.4-2.5,0.4-3.8c0-1.2-0.1-2.4-0.2-3.5 C414.7,153.3,414.4,152.4,414.1,151.5z M411.5,155.9c-0.9,0.3-1.5,0.5-2.1,0.4c-0.5-0.1-0.9-0.2-1.2-0.5c-0.3-0.3-0.4-0.6-0.4-0.9 c0-0.4,0.1-0.7,0.3-1c0.2-0.3,0.5-0.5,0.8-0.6c0.4-0.1,0.8,0,1.2,0.3c0.1,0.1,0.2,0.2,0.4,0.5C410.9,154.7,411.5,155.4,411.5,155.9 z"/><polygon class="st0" points="506.8,168.8 503.8,165.3 500.6,168.9 503.8,172.6 506.8,169.1 509.9,172.6 513.1,168.9 509.9,165.3"/><path class="st0" d="M524.3,139.7c-0.3-0.4-0.6-0.7-0.9-1.2c-0.3-0.4-0.6-0.8-0.9-1.1c-0.3-0.3-0.6-0.7-1-1.2 c-0.1,0-0.2,0.1-0.4,0.4c-0.2,0.2-0.4,0.6-0.6,1c-0.2,0.4-0.5,0.9-0.8,1.4c-0.3,0.5-0.6,1-0.9,1.6c0,0.4,0.1,0.9,0.2,1.7 c0.2,1.7,0.3,3.5,0.4,5.4c0.2,2.1,0.3,4.3,0.4,6.3c0.1,1,0.1,2,0.1,2.9h-6.2v0h-2.5l-1.6-0.2c0.2-0.9,0.3-1.6,0.4-2.2 c0.1-0.6,0.1-1.1,0.1-1.5c0-0.4,0-0.7,0-0.8c0-0.1-0.1-0.2-0.1-0.1c-0.3,0.5-0.8,1-1.3,1.5c-0.5,0.6-1.1,1.1-1.7,1.5 c-0.6,0.5-1.3,0.9-2,1.2c-0.7,0.3-1.4,0.5-2,0.6h-2.7v0h-4c-0.1-1.2-0.5-2.4-1.1-3.6c-0.6-1.2-1.5-2.4-2.7-3.7 c-0.8-0.8-1.5-1.5-2.3-2.1c-0.8-0.7-1.5-1.4-2.3-2.1l9.1-3.5l1.5-5.2c-0.7,0.3-1.6,0.6-2.7,0.9c-1,0.4-2.1,0.8-3.2,1.2 c-1.1,0.4-2.2,0.8-3.2,1.2c-1,0.4-1.9,0.8-2.7,1.1c-1.3,0.6-2,1.9-2.4,3.3c-0.2,0.7-0.4,1.5-0.5,2.2c-0.1,0.8-0.2,1.5-0.2,2.2 c0,0.7,0.7,1.3,1.2,1.8c0.3,0.3,0.7,0.7,1,1c0.3,0.3,0.6,0.6,0.8,0.8c0.1-0.3,0.4-0.4,0.7-0.6c0.1-0.1,0.1-0.1,0.2-0.2 c1.1,0.9,2,1.7,2.7,2.6c0.7,0.8,1.3,1.8,1.8,2.8h-10.5v0h-10.1h-0.4h-10.2h-0.4H450v0h-1.7c-0.6,0-1.2-0.3-1.9-0.8 c-0.7-0.5-1.3-1.1-1.9-1.9c-0.6-0.8-1.2-1.8-1.7-2.9c-0.5-1.1-0.8-2.4-1-3.7c-0.8,0-1.7,0.1-2.6,0.3c-0.9,0.2-1.8,0.4-2.7,0.8 c-0.9,0.3-1.8,0.8-2.7,1.3c-0.9,0.5-1.7,1.1-2.4,1.7c-0.7,0.6-1.4,1.3-2,2.1c-0.6,0.8-1,1.6-1.3,2.4c-0.1,0.3-0.2,0.7-0.3,1.2 c-0.1,0.5-0.2,1-0.3,1.4c-0.1,0.5-0.1,0.9-0.2,1.3c-0.3,3.3,1.4,6.6,2.4,9.8c1.1,3.3,2.5,6.8,2.8,10.2c0.5-1.2,0.8-2.4,1-3.8 c0.5-3,0.1-6.2-0.5-9.2c-0.3-1.5-0.7-3.1-1.2-4.6c-0.4-1.5-0.8-3-1.2-4.4c0.5-0.4,1-0.7,1.5-1.1c0.5-0.3,1-0.6,1.5-0.9 c0,1.3,0.2,2.4,0.7,3.3c0.5,0.9,1.2,1.6,2.1,2.1c0.9,0.5,1.9,0.9,3.2,1.2c1.2,0.3,2.5,0.4,3.9,0.5l1.2-1.8c0.5,0.3,1.1,0.6,1.7,0.8 c0.6,0.2,1.3,0.4,2.1,0.5h1h0.5h10.1h0.4h10.2h0.4h10.1h0.5h17.8h0.6h3.4c0.7,0,1.3-0.1,1.8-0.3c0.6-0.2,1.1-0.4,1.6-0.7 c0.4,0.3,0.8,0.5,1.3,0.7c0.5,0.2,1.1,0.3,1.7,0.3h3.6h0.5h7.6c0.4-1.2,0.8-2.4,1-3.5c0.2-1.1,0.3-2.3,0.4-3.3 c0.1-1.1,0.1-2.1,0-3.1c0-1-0.1-1.9-0.1-2.8c0-0.9-0.1-1.7-0.1-2.5c0-0.8,0-1.5,0.2-2.2c0.1,0,0.2-0.1,0.3-0.2 c0.1-0.2,0.3-0.4,0.4-0.6c0.2-0.3,0.3-0.5,0.5-0.9c0.2-0.3,0.3-0.6,0.5-0.9c0.1-0.3,0.3-0.5,0.3-0.7c0.2-0.5,0.2-0.4-0.1-0.9 C524.8,140.3,524.6,140,524.3,139.7z M439.7,156.4c-0.4-0.1-0.8-0.2-1.1-0.3c-0.3-0.1-0.7-0.3-0.9-0.6c-0.3-0.3-0.6-0.6-0.8-1.1 c0.5-0.2,0.9-0.3,1.4-0.5c0.4-0.1,0.9-0.3,1.4-0.5c0.5,1.2,0.9,2.2,1.5,3.3C440.5,156.6,440.1,156.5,439.7,156.4z"/><polygon class="st0" points="549,173.2 552.8,177.5 556.7,173.2 552.8,168.8"/><path class="st0" d="M585.1,158.4c0.2-1.4,0.3-2.7,0.2-4.1c-0.1-1.3-0.4-2.6-0.8-3.9c-0.5-1.3-1.2-2.5-2.1-3.6l-2.9,4.9 c0.1,0.1,0.3,0.3,0.5,0.6c0.2,0.3,0.4,0.7,0.6,1.2c0.4,0.9,0.8,2.1,1,3.1h-8.8v0h-0.7l-1.6-0.1c0.2-0.9,0.3-1.6,0.4-2.2 c0.1-0.6,0.1-1.1,0.1-1.5c0-0.4,0-0.7-0.1-0.8c0-0.1-0.1-0.2-0.1-0.1c-0.3,0.5-0.8,1-1.3,1.6c-0.5,0.6-1.1,1.1-1.7,1.5 c-0.8,0.6-1.7,1-2.8,1.4c-1.1,0.4-2.2,0.6-3.3,0.8c-1.2,0.2-2.4,0.3-3.6,0.4c-1.2,0.1-2.5,0.1-3.6,0.1c-1.2,0-2.3-0.1-3.4-0.1 c-1.1-0.1-2-0.1-2.8-0.2c-1-0.1-1.9-0.2-2.8-0.4c-0.9-0.2-1.7-0.5-2.3-0.8c-1.3-0.7-2.3-1.7-2.6-3.1c-0.1-0.7-0.1-1.5,0.1-2.4 c0.2-0.9,0.7-2,1.3-3.1c0-0.2-0.1-0.2-0.3,0c-0.2,0.2-0.4,0.5-0.6,0.9c-0.3,0.4-0.5,0.9-0.8,1.5c-0.3,0.6-0.6,1.3-0.9,2 c-0.3,0.7-0.5,1.5-0.7,2.3c-0.2,0.8-0.3,1.6-0.4,2.4c-0.1,0.8,0,1.6,0.1,2.3c0.1,0.8,0.4,1.4,0.8,2.1c1,1.5,2.6,2.2,4.5,2.5 c1,0.2,2.1,0.3,3.4,0.4c1.3,0.1,2.7,0.1,4.1,0.2c2.9,0,6.1-0.1,9-0.5c2.6-0.4,5.4-0.9,7.7-2c0.8,0.6,1.8,1,3,1h1.7h0.7h10.7 C584.6,161.1,584.9,159.8,585.1,158.4z"/><polygon class="st0" points="640.5,140 643.5,143.5 646.8,139.9 643.5,136.2 640.5,139.8 637.5,136.2 634.2,139.9 637.5,143.5"/><path class="st0" d="M643.9,147.9c-2.5-4-5.1-1.4-6.7,1.8c-0.4,0.7-0.7,1.5-0.9,2.3c-0.2,0.8-0.4,1.6-0.6,2.4 c-0.1,0.8-0.2,1.6-0.1,2.2h-2.9v0h-10.2h-0.4h-10.2h-0.4h-10v0h-2c-0.7-0.3-1.4-0.8-1.9-1.5c-0.8-1.1-1.3-2.5-1.4-4.1 c-1.2,1.9-2.1,3.2-2,5.3c0,0.8,0.2,1.6,0.6,2.5c0.4,0.9,0.8,1.9,1.5,3.1c-0.6,1.5-1.3,2.7-2,3.7c-0.7,1-1.4,1.8-2.1,2.5 c-0.7,0.7-1.5,1.2-2.2,1.5c-0.8,0.4-1.5,0.7-2.3,0.9c-0.8,0.2-1.6,0.4-2.3,0.5c-0.3,0-0.5,0.1-0.8,0.2l1.9-2.2l-3.2-3.7l-3.1,3.5 l-3-3.5l-3.2,3.7l3.2,3.6l3-3.5l3.1,3.5l0.6-0.7c0.3,0.1,0.7,0.3,1.1,0.5c1.3,0.5,3,1.1,4.4,1.5c0.8,0.2,1.5,0.3,2.1,0.3 c0.7,0,1.2-0.1,1.5-0.3c0.9-0.6,1.7-1.2,2.4-1.9c0.7-0.7,1.2-1.4,1.7-2.2c0.9-1.4,1.4-2.9,1.9-4.4c0.3-1,0.5-2.1,0.8-2.9h1.3h0.7 h10h0.4h10.2h0.4h10.2h0.5h11.5c0.2-1.3,0.5-2.6,0.7-3.8c0.2-1.2,0.3-2.4,0.3-3.6c0-1.2-0.1-2.4-0.4-3.6 C645.1,150.3,644.6,149.1,643.9,147.9z M642.8,156.2c-0.8,0-1.4-0.1-1.9-0.4c-0.9-0.5-1.6-1.2-1.8-2.1c-0.1-0.4-0.1-0.7,0-1 c0.1-0.3,0.2-0.5,0.4-0.7c0.2-0.2,0.4-0.3,0.7-0.4c0.4-0.1,0.7,0,1,0.2c0.6,0.4,1,1.2,1.2,2c0.1,0.4,0.2,0.8,0.3,1.2 c0.1,0.4,0.1,0.7,0.1,0.9C642.8,156.1,642.8,156.2,642.8,156.2z"/></g><polygon class="st5" points="228,92 228,92 228,92"/><radialGradient id="SVGID_00000067925596406276292850000017651695577197423525_" cx="183.0443" cy="-5792.2217" r="52.8628" gradientTransform="matrix(2.235 0 0 -0.2783 -258.322 -1406.9618)" gradientUnits="userSpaceOnUse"><stop offset="0" style="stop-color:#101C29"/><stop offset="0.1142" style="stop-color:#404C59"/><stop offset="0.2815" style="stop-color:#818D99"/><stop offset="0.4226" style="stop-color:#B0BDC8"/><stop offset="0.5301" style="stop-color:#CDDAE5"/><stop offset="0.5914" style="stop-color:#D8E5F0"/><stop offset="0.6411" style="stop-color:#E4EDF4"/><stop offset="0.7356" style="stop-color:#F3F7FA"/><stop offset="0.8447" style="stop-color:#FCFDFE"/><stop offset="1" style="stop-color:#FFFFFF"/></radialGradient><path style="fill:url(#SVGID_00000067925596406276292850000017651695577197423525_)" d="M268.9,205c0,8.1-52.9,14.7-118.1,14.7	c-65.3,0-118.2-6.6-118.2-14.7c0-8.1,52.9-14.7,118.2-14.7S268.9,196.9,268.9,205z"/><circle class="st5" cx="152.1" cy="122.3" r="82.4"/><g><defs><circle id="SVGID_00000091718424167684894090000017036512493971658416_" cx="152.1" cy="122.3" r="81.4"/></defs><clipPath id="SVGID_00000105421471324670535590000004229610736747969693_"><use xlink:href="#SVGID_00000091718424167684894090000017036512493971658416_" style="overflow:visible"/></clipPath><radialGradient id="SVGID_00000088094241355644761250000003184029621109531563_" cx="-679.1159" cy="538.7997" r="115.6788" fx="-680.6801" fy="539.6653" gradientTransform="matrix(2.6031 0.6418 0.1816 -0.7364 2579.2537 1449.5275)" gradientUnits="userSpaceOnUse"><stop offset="0" style="stop-color:#231F20"/><stop offset="1" style="stop-color:#231F20;stop-opacity:0"/></radialGradient><path style="clip-path:url(#SVGID_00000105421471324670535590000004229610736747969693_);fill:url(#SVGID_00000088094241355644761250000003184029621109531563_)" d="M26.7,173.9c-4.9,19.7,47.6,49.5,117.1,66.7s129.8,15.1,134.7-4.6s-47.6-49.5-117.1-66.7S31.6,154.2,26.7,173.9z"/><defs><circle id="SVGID_00000042725170765480487220000000279200447934297778_" cx="152.1" cy="122.3" r="81.4"/></defs><clipPath id="SVGID_00000008107577628429336310000002614027981141441933_"><use xlink:href="#SVGID_00000042725170765480487220000000279200447934297778_" style="overflow:visible"/></clipPath><path style="clip-path:url(#SVGID_00000008107577628429336310000002614027981141441933_);fill:#1E968E" d="M169.9,201.3l-5.3,1 C166.4,202,168.2,201.7,169.9,201.3z"/><defs><circle id="SVGID_00000035497717975209445580000017169278546017430694_" cx="152.1" cy="122.3" r="81.4"/></defs><clipPath id="SVGID_00000080172549776889557840000016277371391216164996_"><use xlink:href="#SVGID_00000035497717975209445580000017169278546017430694_" style="overflow:visible"/></clipPath><g style="clip-path:url(#SVGID_00000080172549776889557840000016277371391216164996_)"><linearGradient id="SVGID_00000160190991970688409760000005614287867719013286_" gradientUnits="userSpaceOnUse" x1="233.3033" y1="111.8226" x2="75.3382" y2="85.7544" gradientTransform="matrix(1 0 0 -1 0 260)"><stop offset="0" style="stop-color:#F3D837"/><stop offset="0.6633" style="stop-color:#F0B038"/><stop offset="1" style="stop-color:#F08C34"/></linearGradient><path style="fill:url(#SVGID_00000160190991970688409760000005614287867719013286_)" d="M71.4,132.1 c5.1,40.1,39.3,71.1,80.8,71.1c4.2,0,8.4-0.3,12.4-0.9c-7.6-12.5-8.3-36.8-8.3-36.8C80,171.1,72.1,137,71.4,132.1z"/><linearGradient id="SVGID_00000135672866327917671720000007857134894854756011_" gradientUnits="userSpaceOnUse" x1="232.1466" y1="118.832" x2="74.1815" y2="92.764" gradientTransform="matrix(1 0 0 -1 0 260)"><stop offset="0" style="stop-color:#F3D837"/><stop offset="0.6633" style="stop-color:#F0B038"/><stop offset="1" style="stop-color:#F08C34"/></linearGradient><path style="fill:url(#SVGID_00000135672866327917671720000007857134894854756011_)" d="M228,92c9.9,44.5-60.2,68.9-60.2,68.9 c-2.8,21.4,2.2,40.3,2.3,40.4c36.4-8.1,63.6-40.6,63.6-79.5C233.6,111.3,231.6,101.2,228,92z"/></g><g><defs><circle id="SVGID_00000127042169302171870550000005951078691078331286_" cx="152.1" cy="122.3" r="81.4"/></defs><clipPath id="SVGID_00000074402282992756979870000005242324552586917531_"><use xlink:href="#SVGID_00000127042169302171870550000005951078691078331286_" style="overflow:visible"/></clipPath><path style="clip-path:url(#SVGID_00000074402282992756979870000005242324552586917531_);fill:#FFFFFF" d="M71.3,131.5 c0,0,0,0.2,0.1,0.6c-0.3-2.3-0.5-4.5-0.6-6.8C70.8,127.3,70.9,129.4,71.3,131.5z"/></g><g><defs><circle id="SVGID_00000097481580371872204590000008558691866711542462_" cx="152.1" cy="122.3" r="81.4"/></defs><clipPath id="SVGID_00000170246889184830870960000016671660418163944857_"><use xlink:href="#SVGID_00000097481580371872204590000008558691866711542462_" style="overflow:visible"/></clipPath><path style="clip-path:url(#SVGID_00000170246889184830870960000016671660418163944857_);fill:#FFFFFF" d="M170,201.3L170,201.3 c0,0-0.1,0-0.1,0L170,201.3z"/></g><g><defs><circle id="SVGID_00000142872702826333913850000014207840186522792868_" cx="152.1" cy="122.3" r="81.4"/></defs><clipPath id="SVGID_00000150788375921237779220000001634030552895122563_"><use xlink:href="#SVGID_00000142872702826333913850000014207840186522792868_" style="overflow:visible"/></clipPath><path style="clip-path:url(#SVGID_00000150788375921237779220000001634030552895122563_);fill:#FFFFFF" d="M164.6,202.3 L164.6,202.3L164.6,202.3z"/></g><g><defs><circle id="SVGID_00000003092362165250462650000015899028893459680702_" cx="152.1" cy="122.3" r="81.4"/></defs><clipPath id="SVGID_00000093137115821377606760000008360924401735137689_"><use xlink:href="#SVGID_00000003092362165250462650000015899028893459680702_" style="overflow:visible"/></clipPath><path style="clip-path:url(#SVGID_00000093137115821377606760000008360924401735137689_);fill:#FFFFFF" d="M167.4,163.8 c0,0,81.4-25.3,60.6-71.8c0,0,0,0,0,0c0-0.1-5-11-22.9-7.1c0,0-36.6,7.8-49,69.5c0,0-63.3,4.7-68.2-23.3c0,0-4.2-21.5,39.4-32.2 l0.8,14.3l29.8-35.3L105,72.9l11.2,9.3c0,0-44.5,14.5-45.3,43c0.1,2.3,0.3,4.6,0.6,6.8c0.7,4.9,8.6,39,84.9,33.4 c0,0,0.7,24.3,8.3,36.8c0,0,0,0,0,0l5.3-1c0,0,0.1,0,0.1,0C170,201.1,165.8,186.4,167.4,163.8z M215.8,108.7c0,0,4.4,4.7-1.8,11.9 c-6.2,7.3-32.4,24.9-43.6,29.6C170.4,150.2,196.3,97,215.8,108.7z"/></g><g><defs><circle id="SVGID_00000099656193878516072310000011997832340554328493_" cx="152.1" cy="122.3" r="81.4"/></defs><clipPath id="SVGID_00000116231555132621282850000012019727527195520676_"><use xlink:href="#SVGID_00000099656193878516072310000011997832340554328493_" style="overflow:visible"/></clipPath><g style="clip-path:url(#SVGID_00000116231555132621282850000012019727527195520676_)"><linearGradient id="SVGID_00000048488159582568696170000018195330586119556789_" gradientUnits="userSpaceOnUse" x1="187.4333" y1="208.7634" x2="92.1539" y2="110.7728" gradientTransform="matrix(1 0 0 -1 0 260)"><stop offset="0" style="stop-color:#3CB8B3"/><stop offset="1" style="stop-color:#157373"/></linearGradient><path style="fill:url(#SVGID_00000048488159582568696170000018195330586119556789_)" d="M152.2,40.4c-45,0-81.4,36.5-81.4,81.4 c0,1.2,0,2.3,0.1,3.5c0.9-28.5,45.3-43,45.3-43L105,72.9l52.9,4.9l-29.8,35.3l-0.8-14.3C83.7,109.5,87.9,131,87.9,131 c4.9,28,68.2,23.3,68.2,23.3c12.4-61.7,49-69.5,49-69.5C223,81,228,91.9,228,92C214.3,62.1,186.7,40.4,152.2,40.4z"/><linearGradient id="SVGID_00000125574370360752650800000004446147660895466127_" gradientUnits="userSpaceOnUse" x1="229.4807" y1="168.3219" x2="135.0424" y2="71.1963" gradientTransform="matrix(1 0 0 -1 0 260)"><stop offset="0" style="stop-color:#3CB8B3"/><stop offset="1" style="stop-color:#157373"/></linearGradient><path style="fill:url(#SVGID_00000125574370360752650800000004446147660895466127_)" d="M171.2,149.9 c11.2-4.7,36.5-22,42.8-29.2s1.8-11.9,1.8-11.9C197.5,94.5,171.2,149.9,171.2,149.9z"/></g></g><g><defs><circle id="SVGID_00000167396059198774663150000001473352224307550119_" cx="152.1" cy="122.3" r="81.4"/></defs><clipPath id="SVGID_00000047780062098758280910000014875324083881166249_"><use xlink:href="#SVGID_00000167396059198774663150000001473352224307550119_" style="overflow:visible"/></clipPath><radialGradient id="SVGID_00000098936427803580265090000013209979862185125027_" cx="-814.9712" cy="1378.8143" r="13.5737" fx="-815.1548" fy="1378.9159" gradientTransform="matrix(1.8477 1.0531 0.4783 -0.8392 1010.4002 2069.7546)" gradientUnits="userSpaceOnUse"><stop offset="0" style="stop-color:#FFFFFF"/><stop offset="1" style="stop-color:#FFFFFF;stop-opacity:0"/></radialGradient><path style="opacity:0.5;clip-path:url(#SVGID_00000047780062098758280910000014875324083881166249_);fill:url(#SVGID_00000098936427803580265090000013209979862185125027_);enable-background:new" d="M123.8,31.1c-5.8,10.1,7.6,28.7,30,41.4s45.2,14.8,50.9,4.7s-7.6-28.7-30-41.4S129.5,20.9,123.8,31.1z"/></g></g></svg>