<?xml version="1.0" encoding="UTF-8"?>
<svg version="1.1" xmlns="http://www.w3.org/2000/svg" width="507" height="492">
<path d="M0 0 C1.2817555 0.00081715 1.2817555 0.00081715 2.58940506 0.00165081 C3.57005936 -0.00254368 4.55071365 -0.00673817 5.56108475 -0.01105976 C6.64141983 -0.00544025 7.72175491 0.00017925 8.83482742 0.00596905 C10.53790054 0.00312153 10.53790054 0.00312153 12.27537918 0.00021648 C16.05470424 -0.00350702 19.83383952 0.00724799 23.61314774 0.01842022 C26.24801486 0.01961287 28.88288241 0.020065 31.51774979 0.01980877 C37.06291943 0.02074719 42.60803461 0.02943984 48.1531868 0.04307842 C54.50686944 0.05865097 60.86049179 0.06408192 67.21419215 0.06334287 C73.36613959 0.06272453 79.51806796 0.06791217 85.67000961 0.07613468 C88.26428233 0.07928319 90.85855675 0.08127966 93.45283127 0.08202839 C168.95750958 0.1275975 168.95750958 0.1275975 193.49107742 23.76646709 C203.13472191 33.62441479 209.71696087 45.89102553 212.94127274 59.24888897 C213.35892899 60.84217022 213.35892899 60.84217022 213.78502274 62.46763897 C219.50184859 86.8170824 216.01600401 112.99250184 202.81627274 134.31138897 C190.94238501 152.60569321 172.02221631 164.78981742 150.82432938 169.50572491 C131.66293193 173.12443779 112.48119656 172.72109461 93.06682205 172.52354717 C88.52700317 172.48190219 83.98708877 172.46420768 79.44713211 172.44420147 C70.6115921 172.4018846 61.77650361 172.33403666 52.94127274 172.24888897 C52.94349335 173.51200405 52.94571396 174.77511913 52.94800186 176.07651043 C52.96823109 187.95212736 52.98324382 199.82774082 52.99308491 211.70337105 C52.99831429 217.80945266 53.00541294 223.91552041 53.01671219 230.02159405 C53.0275391 235.90894044 53.03354915 241.79627346 53.03614998 247.68362904 C53.03800458 249.93521173 53.04162586 252.18679366 53.04700279 254.4383707 C53.05421062 257.58022324 53.05526379 260.7220198 53.05479813 263.8638792 C53.0583934 264.80470852 53.06198868 265.74553783 53.0656929 266.71487713 C53.0553249 273.13483681 53.0553249 273.13483681 51.94127274 274.24888897 C50.22261865 274.34248087 48.5001153 274.36633508 46.77891922 274.36241436 C45.67785339 274.36233883 44.57678757 274.3622633 43.44235611 274.36218548 C42.24445953 274.35702419 41.04656296 274.35186291 39.81236649 274.34654522 C38.59299896 274.34513027 37.37363144 274.34371532 36.11731339 274.3422575 C32.20444204 274.33663864 28.29162693 274.32408293 24.37877274 274.31138897 C21.73359127 274.3063764 19.08840891 274.30181307 16.44322586 274.29771709 C9.94255548 274.28666308 3.44191812 274.26990661 -3.05872726 274.24888897 C-4.24619648 271.87395054 -4.18508057 270.44176473 -4.18736172 267.79168987 C-4.19058616 266.84842437 -4.19381061 265.90515886 -4.19713277 264.93330956 C-4.19558416 263.88994344 -4.19403556 262.84657732 -4.19244003 261.77159405 C-4.19470559 260.66873719 -4.19697115 259.56588034 -4.19930536 258.42960358 C-4.2056696 254.70919868 -4.20481445 250.98882998 -4.20399094 247.26842022 C-4.20698089 244.61130415 -4.21035438 241.95419099 -4.21416855 239.29707623 C-4.22248626 232.81424692 -4.22522388 226.33142671 -4.22578093 219.84859252 C-4.2262555 214.58168359 -4.22830728 209.31477766 -4.23148155 204.04786968 C-4.24029068 189.12868311 -4.24490045 174.20950375 -4.24415108 159.29031456 C-4.24411112 158.485482 -4.24407117 157.68064945 -4.24403 156.85142803 C-4.24398912 156.04561767 -4.24394824 155.2398073 -4.24390612 154.40957844 C-4.24349943 141.34219439 -4.25307405 128.27483911 -4.26716837 115.20746338 C-4.28151249 101.80318126 -4.28843966 88.39891319 -4.28757459 74.99462318 C-4.28724197 67.46377567 -4.29001744 59.93295835 -4.30075264 52.40211773 C-4.3098318 45.99173897 -4.31205424 39.58140408 -4.30524322 33.1710217 C-4.30196503 29.89789373 -4.30304231 26.6248681 -4.31059647 23.35174465 C-4.31824467 19.80981429 -4.31371954 16.26810895 -4.30596542 12.72618389 C-4.31110899 11.68281777 -4.31625255 10.63945166 -4.32155198 9.56446838 C-4.31695318 8.62120288 -4.31235439 7.67793737 -4.30761623 6.70608807 C-4.3078336 5.88773574 -4.30805097 5.06938341 -4.30827492 4.22623253 C-3.94194327 1.32352638 -2.88672035 0.34898885 0 0 Z M52.94127274 47.24888897 C52.94127274 72.98888897 52.94127274 98.72888897 52.94127274 125.24888897 C68.28627274 125.34170147 68.28627274 125.34170147 83.94127274 125.43638897 C87.13685867 125.46370098 90.33244461 125.49101299 93.62486649 125.51915264 C96.20949808 125.52792938 98.79413389 125.53557049 101.37877274 125.54185772 C102.67879227 125.55720562 103.9788118 125.57255352 105.31822586 125.58836651 C117.12645184 125.59166612 130.81469166 124.98466914 140.94127274 118.24888897 C141.61416336 117.82865459 142.28705399 117.40842022 142.98033524 116.97545147 C150.38839804 111.95350627 155.2104021 104.91273975 157.46861649 96.24498272 C159.16282574 85.50565627 158.89297565 75.10035386 153.94127274 65.24888897 C153.40502274 64.17638897 152.86877274 63.10388897 152.31627274 61.99888897 C144.53480968 52.98877385 132.64919883 47.74117458 120.82777786 46.81538677 C116.45907331 46.61738272 112.09738412 46.68292221 107.72642899 46.76060772 C106.31201038 46.767988 104.89757795 46.77307104 103.48314285 46.77586651 C98.32314028 46.80174696 93.16343283 46.87155038 88.00377274 46.93638897 C70.64783524 47.09107647 70.64783524 47.09107647 52.94127274 47.24888897 Z " fill="#F5F5F5" transform="translate(114.0587272644043,170.7511110305786)"/>
<path d="M0 0 C1.40354736 0.12628784 1.40354736 0.12628784 2.83544922 0.25512695 C3.83721191 0.36429443 4.83897461 0.47346191 5.87109375 0.5859375 C6.90379395 0.6893042 7.93649414 0.7926709 9.00048828 0.89916992 C43.96765186 4.56103448 75.28288491 15.94299463 103.49609375 37.2734375 C104.07375488 37.70640137 104.65141602 38.13936523 105.24658203 38.58544922 C106.64023561 39.66111065 107.98016529 40.80569049 109.30859375 41.9609375 C109.30859375 42.6209375 109.30859375 43.2809375 109.30859375 43.9609375 C109.86546875 44.1878125 110.42234375 44.4146875 110.99609375 44.6484375 C113.96099347 46.33121842 115.92510875 48.52202262 118.30859375 50.9609375 C119.46746983 51.94931227 120.63454806 52.92813075 121.80859375 53.8984375 C125.07718464 56.66636895 127.73697583 59.5321136 130.30859375 62.9609375 C130.30859375 63.6209375 130.30859375 64.2809375 130.30859375 64.9609375 C130.96859375 64.9609375 131.62859375 64.9609375 132.30859375 64.9609375 C133.94935669 66.96766987 135.45129344 68.96574152 136.93359375 71.0859375 C137.60237549 72.03557373 137.60237549 72.03557373 138.28466797 73.00439453 C142.34120701 78.853863 145.97554359 84.88741709 149.34082031 91.16015625 C149.98559674 92.35992187 150.63861237 93.55529616 151.29980469 94.74609375 C165.49399484 120.39257196 170.87288094 147.94847429 171.30859375 176.9609375 C168.20812886 178.76603943 165.96665098 179.20875324 162.39453125 179.19140625 C161.46898437 179.18947266 160.5434375 179.18753906 159.58984375 179.18554688 C158.15125 179.16717773 158.15125 179.16717773 156.68359375 179.1484375 C155.71679688 179.14779297 154.75 179.14714844 153.75390625 179.14648438 C146.5896338 179.10145752 146.5896338 179.10145752 144.30859375 177.9609375 C143.83789062 175.71118164 143.83789062 175.71118164 143.52734375 172.74609375 C143.40746094 171.66650391 143.28757812 170.58691406 143.1640625 169.47460938 C142.98810547 167.7662793 142.98810547 167.7662793 142.80859375 166.0234375 C140.16170331 141.11067195 133.56636041 116.84885902 119.30859375 95.9609375 C118.14122801 94.2322427 116.97448989 92.50312379 115.80859375 90.7734375 C115.32390625 90.07863281 114.83921875 89.38382812 114.33984375 88.66796875 C113.30859375 86.9609375 113.30859375 86.9609375 113.30859375 84.9609375 C112.64859375 84.9609375 111.98859375 84.9609375 111.30859375 84.9609375 C109.87834149 83.32000493 108.51436985 81.62102747 107.18359375 79.8984375 C103.68511493 75.49840579 100.13177668 71.8004732 95.7421875 68.30078125 C95.26910156 67.85863281 94.79601562 67.41648437 94.30859375 66.9609375 C94.30859375 66.3009375 94.30859375 65.6409375 94.30859375 64.9609375 C93.50421875 64.61095703 93.50421875 64.61095703 92.68359375 64.25390625 C89.62240886 62.58737303 87.01844785 60.44382429 84.30859375 58.2734375 C57.39353076 37.29015178 26.71363415 29.77759273 -6.69140625 27.9609375 C-7.59381579 22.51737028 -7.9052454 17.2254675 -7.94140625 11.7109375 C-7.96203125 10.90914062 -7.98265625 10.10734375 -8.00390625 9.28125 C-8.04282799 3.46244925 -8.04282799 3.46244925 -6.46411133 1.20947266 C-4.1044294 -0.45247658 -2.85179482 -0.27517077 0 0 Z " fill="#EAEAEA" transform="translate(260.69140625,40.0390625)"/>
<path d="M0 0 C36.0781286 1.79325588 64.90318395 14.11103098 91 39 C91.74378906 39.6909375 92.48757813 40.381875 93.25390625 41.09375 C115.98503702 62.80175747 128.07237829 95.72487134 129.0546875 126.640625 C129 130 129 130 128 132 C122.37731439 132.98303078 116.82313579 133.18250164 111.125 133.1875 C110.36703125 133.19974609 109.6090625 133.21199219 108.828125 133.22460938 C106.88398143 133.22979837 104.94024991 133.12309112 103 133 C99.95380392 129.95380392 100.39127558 126.23449833 100.0625 122.125 C97.44389693 94.59504373 84.80880994 68.92956995 63.50390625 50.90234375 C45.56215331 37.27108996 25.15560223 29.51174592 2.625 27.4375 C1.42875 27.293125 0.2325 27.14875 -1 27 C-2.93627848 23.12744304 -2.18480603 18.3216696 -2.1875 14.0625 C-2.19974609 13.04736328 -2.21199219 12.03222656 -2.22460938 10.98632812 C-2.22654297 10.01244141 -2.22847656 9.03855469 -2.23046875 8.03515625 C-2.23457764 7.1419165 -2.23868652 6.24867676 -2.24291992 5.32836914 C-2 3 -2 3 0 0 Z " fill="#EAEAEA" transform="translate(255,86)"/>
<path d="M0 0 C12.28628045 -0.40954268 22.73473105 2.14018081 34 7 C34.72960937 7.30808594 35.45921875 7.61617187 36.2109375 7.93359375 C56.38288801 17.19622409 70.52142549 35.63902345 79.09375 55.5390625 C82.24646416 64.10031215 82.25786088 72.98919479 82 82 C81.34 82 80.68 82 80 82 C79.64808594 81.18917969 79.29617188 80.37835938 78.93359375 79.54296875 C73.49464439 67.34438519 67.41382089 55.60921393 56 48 C56 47.34 56 46.68 56 46 C55.319375 45.773125 54.63875 45.54625 53.9375 45.3125 C51 44 51 44 47.875 41.6875 C36.13854493 33.08751137 21.44512799 29.86140162 7.27148438 28.12646484 C5.16627643 27.84493436 3.07959914 27.43177234 1 27 C-1.14648188 23.78027718 -1.24848373 22.92347762 -1.23046875 19.21875 C-1.22853516 18.29449219 -1.22660156 17.37023437 -1.22460938 16.41796875 C-1.21236328 15.45503906 -1.20011719 14.49210938 -1.1875 13.5 C-1.18685547 12.53707031 -1.18621094 11.57414063 -1.18554688 10.58203125 C-1.14060834 3.42182503 -1.14060834 3.42182503 0 0 Z " fill="#E1E1E1" transform="translate(254,132)"/>
</svg>
